<svg xmlns="http://www.w3.org/2000/svg" width="391" height="391" viewBox="0 0 391 391">
  <g id="default" transform="translate(353 18080)">
    <g id="Group_341" data-name="Group 341">
      <g id="Group_340" data-name="Group 340">
        <rect id="Rectangle_503" data-name="Rectangle 503" width="391" height="391" transform="translate(-353 -18080)" fill="#e8e8e8"/>
        <path id="Icon_metro-image" data-name="Icon metro-image" d="M144.605,13.326l.017.017V126.951l-.017.017H12.058a.133.133,0,0,1-.017-.017V13.343l.017-.017Zm.017-9.47H12.041a9.5,9.5,0,0,0-9.47,9.47V126.967a9.5,9.5,0,0,0,9.47,9.47H144.622a9.5,9.5,0,0,0,9.47-9.47V13.326a9.5,9.5,0,0,0-9.47-9.47ZM125.682,37A14.205,14.205,0,1,1,111.477,22.8,14.205,14.205,0,0,1,125.682,37Zm9.47,80.5H21.511V98.557L54.656,41.736l37.88,47.351h9.47l33.145-28.41Z" transform="translate(-235.701 -17954.469)" opacity="0.1"/>
      </g>
    </g>
  </g>
</svg>
